<?xml version="1.0" encoding="UTF-8" standalone="no"?>
<!DOCTYPE svg PUBLIC "-//W3C//DTD SVG 1.1//EN"
 "http://www.w3.org/Graphics/SVG/1.1/DTD/svg11.dtd">
<!-- Generated by graphviz version 14.1.2 (20260124.0452)
 -->
<!-- Title: architecture Pages: 1 -->
<svg width="780pt" height="265pt"
 viewBox="0.00 0.00 780.00 265.00" xmlns="http://www.w3.org/2000/svg" xmlns:xlink="http://www.w3.org/1999/xlink">
<g id="graph0" class="graph" transform="scale(1 1) rotate(0) translate(4 261)">
<title>architecture</title>
<polygon fill="white" stroke="none" points="-4,4 -4,-261 776,-261 776,4 -4,4"/>
<g id="clust1" class="cluster">
<title>cluster_core</title>
<path fill="#f8f9fa" stroke="#666666" d="M126,-113C126,-113 752,-113 752,-113 758,-113 764,-119 764,-125 764,-125 764,-198 764,-198 764,-204 758,-210 752,-210 752,-210 126,-210 126,-210 120,-210 114,-204 114,-198 114,-198 114,-125 114,-125 114,-119 120,-113 126,-113"/>
<text xml:space="preserve" text-anchor="middle" x="439" y="-195.55" font-family="Helvetica,sans-Serif" font-weight="bold" font-size="11.00">Core Components</text>
</g>
<g id="clust2" class="cluster">
<title>cluster_support</title>
<path fill="#fff8f0" stroke="#666666" d="M20,-8C20,-8 352,-8 352,-8 358,-8 364,-14 364,-20 364,-20 364,-93 364,-93 364,-99 358,-105 352,-105 352,-105 20,-105 20,-105 14,-105 8,-99 8,-93 8,-93 8,-20 8,-20 8,-14 14,-8 20,-8"/>
<text xml:space="preserve" text-anchor="middle" x="186" y="-90.55" font-family="Helvetica,sans-Serif" font-weight="bold" font-size="11.00">Support Infrastructure</text>
</g>
<g id="clust3" class="cluster">
<title>cluster_tools</title>
<path fill="#f0f8ff" stroke="#666666" d="M387,-16.5C387,-16.5 723,-16.5 723,-16.5 729,-16.5 735,-22.5 735,-28.5 735,-28.5 735,-84.5 735,-84.5 735,-90.5 729,-96.5 723,-96.5 723,-96.5 387,-96.5 387,-96.5 381,-96.5 375,-90.5 375,-84.5 375,-84.5 375,-28.5 375,-28.5 375,-22.5 381,-16.5 387,-16.5"/>
<text xml:space="preserve" text-anchor="middle" x="555" y="-82.05" font-family="Helvetica,sans-Serif" font-weight="bold" font-size="11.00">Tool Layer</text>
</g>
<!-- orch -->
<g id="node1" class="node">
<title>orch</title>
<path fill="#4a90d9" stroke="#34699c" stroke-width="1.2" d="M403.12,-257C403.12,-257 270.88,-257 270.88,-257 264.88,-257 258.88,-251 258.88,-245 258.88,-245 258.88,-233 258.88,-233 258.88,-227 264.88,-221 270.88,-221 270.88,-221 403.12,-221 403.12,-221 409.12,-221 415.12,-227 415.12,-233 415.12,-233 415.12,-245 415.12,-245 415.12,-251 409.12,-257 403.12,-257"/>
<text xml:space="preserve" text-anchor="middle" x="337" y="-240.35" font-family="Helvetica,sans-Serif" font-size="12.00" fill="white">Orchestrator</text>
<text xml:space="preserve" text-anchor="middle" x="337" y="-227.6" font-family="Helvetica,sans-Serif" font-size="12.00" fill="white">Controls the research loop</text>
</g>
<!-- planner -->
<g id="node2" class="node">
<title>planner</title>
<polygon fill="#f5a623" stroke="#c4841c" stroke-width="1.2" points="244.38,-178 125.62,-178 125.62,-125 244.38,-125 244.38,-178"/>
<text xml:space="preserve" text-anchor="middle" x="185" y="-164.5" font-family="Helvetica,sans-Serif" font-size="10.00">Planner</text>
<text xml:space="preserve" text-anchor="middle" x="185" y="-153.25" font-family="Helvetica,sans-Serif" font-size="10.00">──────────</text>
<text xml:space="preserve" text-anchor="middle" x="185" y="-142" font-family="Helvetica,sans-Serif" font-size="10.00">Decomposes questions</text>
<text xml:space="preserve" text-anchor="middle" x="185" y="-130.75" font-family="Helvetica,sans-Serif" font-size="10.00">into sub&#45;tasks</text>
</g>
<!-- orch&#45;&gt;planner -->
<g id="edge1" class="edge">
<title>orch&#45;&gt;planner</title>
<path fill="none" stroke="black" d="M284.11,-220.42C276.53,-217.29 268.95,-213.79 262,-210 249.17,-203 236.11,-194.06 224.47,-185.33"/>
<polygon fill="black" stroke="black" points="226.74,-182.66 216.68,-179.33 222.47,-188.2 226.74,-182.66"/>
</g>
<!-- executor -->
<g id="node3" class="node">
<title>executor</title>
<polygon fill="#7b68ee" stroke="#5a4bc7" stroke-width="1.2" points="582.25,-178 429.75,-178 429.75,-125 582.25,-125 582.25,-178"/>
<text xml:space="preserve" text-anchor="middle" x="506" y="-164.5" font-family="Helvetica,sans-Serif" font-size="10.00" fill="white">Tool Executor</text>
<text xml:space="preserve" text-anchor="middle" x="506" y="-153.25" font-family="Helvetica,sans-Serif" font-size="10.00" fill="white">──────────────</text>
<text xml:space="preserve" text-anchor="middle" x="506" y="-142" font-family="Helvetica,sans-Serif" font-size="10.00" fill="white">Calls APIs, searches,</text>
<text xml:space="preserve" text-anchor="middle" x="506" y="-130.75" font-family="Helvetica,sans-Serif" font-size="10.00" fill="white">reads documents</text>
</g>
<!-- orch&#45;&gt;executor -->
<g id="edge2" class="edge">
<title>orch&#45;&gt;executor</title>
<path fill="none" stroke="black" d="M387.99,-220.47C396.13,-217.24 404.38,-213.71 412,-210 427.23,-202.58 443.18,-193.42 457.51,-184.6"/>
<polygon fill="black" stroke="black" points="459.25,-187.64 465.87,-179.38 455.54,-181.71 459.25,-187.64"/>
</g>
<!-- valid -->
<g id="node4" class="node">
<title>valid</title>
<polygon fill="#50c878" stroke="#3a9a5c" stroke-width="1.2" points="393.75,-178 280.25,-178 280.25,-125 393.75,-125 393.75,-178"/>
<text xml:space="preserve" text-anchor="middle" x="337" y="-164.5" font-family="Helvetica,sans-Serif" font-size="10.00">Validator</text>
<text xml:space="preserve" text-anchor="middle" x="337" y="-153.25" font-family="Helvetica,sans-Serif" font-size="10.00">──────────</text>
<text xml:space="preserve" text-anchor="middle" x="337" y="-142" font-family="Helvetica,sans-Serif" font-size="10.00">Checks accuracy,</text>
<text xml:space="preserve" text-anchor="middle" x="337" y="-130.75" font-family="Helvetica,sans-Serif" font-size="10.00">completeness</text>
</g>
<!-- orch&#45;&gt;valid -->
<g id="edge3" class="edge">
<title>orch&#45;&gt;valid</title>
<path fill="none" stroke="black" d="M337,-220.7C337,-211.81 337,-200.62 337,-189.88"/>
<polygon fill="black" stroke="black" points="340.5,-190.06 337,-180.06 333.5,-190.06 340.5,-190.06"/>
</g>
<!-- synth -->
<g id="node5" class="node">
<title>synth</title>
<polygon fill="#4ecdc4" stroke="#3aaba3" stroke-width="1.2" points="751.5,-178 618.5,-178 618.5,-125 751.5,-125 751.5,-178"/>
<text xml:space="preserve" text-anchor="middle" x="685" y="-164.5" font-family="Helvetica,sans-Serif" font-size="10.00">Synthesizer</text>
<text xml:space="preserve" text-anchor="middle" x="685" y="-153.25" font-family="Helvetica,sans-Serif" font-size="10.00">────────────</text>
<text xml:space="preserve" text-anchor="middle" x="685" y="-142" font-family="Helvetica,sans-Serif" font-size="10.00">Produces structured</text>
<text xml:space="preserve" text-anchor="middle" x="685" y="-130.75" font-family="Helvetica,sans-Serif" font-size="10.00">reports</text>
</g>
<!-- orch&#45;&gt;synth -->
<g id="edge4" class="edge">
<title>orch&#45;&gt;synth</title>
<path fill="none" stroke="black" d="M415.72,-233.82C480.65,-229.6 567.22,-221.98 600,-210 616.04,-204.14 631.99,-194.6 645.67,-184.96"/>
<polygon fill="black" stroke="black" points="647.52,-187.95 653.52,-179.21 643.39,-182.3 647.52,-187.95"/>
</g>
<!-- ctx -->
<g id="node6" class="node">
<title>ctx</title>
<polygon fill="#ff9f43" stroke="#cc7a2e" stroke-width="1.2" points="192,-73 20,-73 20,-20 192,-20 192,-73"/>
<text xml:space="preserve" text-anchor="middle" x="106" y="-59.5" font-family="Helvetica,sans-Serif" font-size="10.00">Context Manager</text>
<text xml:space="preserve" text-anchor="middle" x="106" y="-48.25" font-family="Helvetica,sans-Serif" font-size="10.00">────────────────</text>
<text xml:space="preserve" text-anchor="middle" x="106" y="-37" font-family="Helvetica,sans-Serif" font-size="10.00">Token budgets,</text>
<text xml:space="preserve" text-anchor="middle" x="106" y="-25.75" font-family="Helvetica,sans-Serif" font-size="10.00">summarization</text>
</g>
<!-- orch&#45;&gt;ctx -->
<g id="edge5" class="edge">
<title>orch&#45;&gt;ctx</title>
<path fill="none" stroke="black" d="M258.31,-233.6C195.1,-229.24 115.23,-221.54 105,-210 74.89,-176.04 83.02,-120.6 93.21,-84.08"/>
<polygon fill="black" stroke="black" points="96.46,-85.43 95.97,-74.85 89.76,-83.43 96.46,-85.43"/>
</g>
<!-- scratch -->
<g id="node7" class="node">
<title>scratch</title>
<polygon fill="#ff9f43" stroke="#cc7a2e" stroke-width="1.2" points="351.62,-73 228.38,-73 228.38,-20 351.62,-20 351.62,-73"/>
<text xml:space="preserve" text-anchor="middle" x="290" y="-59.5" font-family="Helvetica,sans-Serif" font-size="10.00">Scratchpad</text>
<text xml:space="preserve" text-anchor="middle" x="290" y="-48.25" font-family="Helvetica,sans-Serif" font-size="10.00">───────────</text>
<text xml:space="preserve" text-anchor="middle" x="290" y="-37" font-family="Helvetica,sans-Serif" font-size="10.00">Intermediate results,</text>
<text xml:space="preserve" text-anchor="middle" x="290" y="-25.75" font-family="Helvetica,sans-Serif" font-size="10.00">audit trail</text>
</g>
<!-- executor&#45;&gt;scratch -->
<g id="edge6" class="edge">
<title>executor&#45;&gt;scratch</title>
<path fill="none" stroke="black" d="M445.96,-124.41C434.81,-120.18 423.16,-116.16 412,-113 392.03,-107.35 385.03,-113.27 366,-105 351.97,-98.9 338.17,-89.71 326.25,-80.46"/>
<polygon fill="black" stroke="black" points="328.69,-77.93 318.71,-74.37 324.29,-83.38 328.69,-77.93"/>
</g>
<!-- t1 -->
<g id="node8" class="node">
<title>t1</title>
<polygon fill="#d5e8f5" stroke="#2980b9" stroke-width="1.2" points="442.5,-64.5 387.5,-64.5 387.5,-60.5 383.5,-60.5 383.5,-56.5 387.5,-56.5 387.5,-36.5 383.5,-36.5 383.5,-32.5 387.5,-32.5 387.5,-28.5 442.5,-28.5 442.5,-64.5"/>
<polyline fill="none" stroke="#2980b9" stroke-width="1.2" points="387.5,-60.5 391.5,-60.5 391.5,-56.5 387.5,-56.5"/>
<polyline fill="none" stroke="#2980b9" stroke-width="1.2" points="387.5,-36.5 391.5,-36.5 391.5,-32.5 387.5,-32.5"/>
<text xml:space="preserve" text-anchor="middle" x="415" y="-48.25" font-family="Helvetica,sans-Serif" font-size="10.00">Financial</text>
<text xml:space="preserve" text-anchor="middle" x="415" y="-37" font-family="Helvetica,sans-Serif" font-size="10.00">APIs</text>
</g>
<!-- executor&#45;&gt;t1 -->
<g id="edge8" class="edge">
<title>executor&#45;&gt;t1</title>
<path fill="none" stroke="black" d="M479.34,-124.49C473.19,-118.23 466.76,-111.47 461,-105 452.24,-95.16 443.08,-83.92 435.26,-74.01"/>
<polygon fill="black" stroke="black" points="438.07,-71.92 429.16,-66.19 432.55,-76.23 438.07,-71.92"/>
</g>
<!-- t2 -->
<g id="node9" class="node">
<title>t2</title>
<polygon fill="#d5e8f5" stroke="#2980b9" stroke-width="1.2" points="533,-64.5 479,-64.5 479,-60.5 475,-60.5 475,-56.5 479,-56.5 479,-36.5 475,-36.5 475,-32.5 479,-32.5 479,-28.5 533,-28.5 533,-64.5"/>
<polyline fill="none" stroke="#2980b9" stroke-width="1.2" points="479,-60.5 483,-60.5 483,-56.5 479,-56.5"/>
<polyline fill="none" stroke="#2980b9" stroke-width="1.2" points="479,-36.5 483,-36.5 483,-32.5 479,-32.5"/>
<text xml:space="preserve" text-anchor="middle" x="506" y="-48.25" font-family="Helvetica,sans-Serif" font-size="10.00">SEC</text>
<text xml:space="preserve" text-anchor="middle" x="506" y="-37" font-family="Helvetica,sans-Serif" font-size="10.00">EDGAR</text>
</g>
<!-- executor&#45;&gt;t2 -->
<g id="edge9" class="edge">
<title>executor&#45;&gt;t2</title>
<path fill="none" stroke="black" d="M506,-124.51C506,-109.84 506,-91.47 506,-76.35"/>
<polygon fill="black" stroke="black" points="509.5,-76.57 506,-66.57 502.5,-76.57 509.5,-76.57"/>
</g>
<!-- t3 -->
<g id="node10" class="node">
<title>t3</title>
<polygon fill="#d5e8f5" stroke="#2980b9" stroke-width="1.2" points="623,-64.5 569,-64.5 569,-60.5 565,-60.5 565,-56.5 569,-56.5 569,-36.5 565,-36.5 565,-32.5 569,-32.5 569,-28.5 623,-28.5 623,-64.5"/>
<polyline fill="none" stroke="#2980b9" stroke-width="1.2" points="569,-60.5 573,-60.5 573,-56.5 569,-56.5"/>
<polyline fill="none" stroke="#2980b9" stroke-width="1.2" points="569,-36.5 573,-36.5 573,-32.5 569,-32.5"/>
<text xml:space="preserve" text-anchor="middle" x="596" y="-48.25" font-family="Helvetica,sans-Serif" font-size="10.00">Web</text>
<text xml:space="preserve" text-anchor="middle" x="596" y="-37" font-family="Helvetica,sans-Serif" font-size="10.00">Search</text>
</g>
<!-- executor&#45;&gt;t3 -->
<g id="edge10" class="edge">
<title>executor&#45;&gt;t3</title>
<path fill="none" stroke="black" d="M532.71,-124.53C538.86,-118.27 545.27,-111.5 551,-105 559.63,-95.19 568.61,-83.97 576.25,-74.05"/>
<polygon fill="black" stroke="black" points="578.93,-76.31 582.2,-66.23 573.36,-72.07 578.93,-76.31"/>
</g>
<!-- t4 -->
<g id="node11" class="node">
<title>t4</title>
<polygon fill="#d5e8f5" stroke="#2980b9" stroke-width="1.2" points="723.38,-64.5 658.62,-64.5 658.62,-60.5 654.62,-60.5 654.62,-56.5 658.62,-56.5 658.62,-36.5 654.62,-36.5 654.62,-32.5 658.62,-32.5 658.62,-28.5 723.38,-28.5 723.38,-64.5"/>
<polyline fill="none" stroke="#2980b9" stroke-width="1.2" points="658.62,-60.5 662.62,-60.5 662.62,-56.5 658.62,-56.5"/>
<polyline fill="none" stroke="#2980b9" stroke-width="1.2" points="658.62,-36.5 662.62,-36.5 662.62,-32.5 658.62,-32.5"/>
<text xml:space="preserve" text-anchor="middle" x="691" y="-48.25" font-family="Helvetica,sans-Serif" font-size="10.00">News &amp;</text>
<text xml:space="preserve" text-anchor="middle" x="691" y="-37" font-family="Helvetica,sans-Serif" font-size="10.00">Transcripts</text>
</g>
<!-- executor&#45;&gt;t4 -->
<g id="edge11" class="edge">
<title>executor&#45;&gt;t4</title>
<path fill="none" stroke="black" d="M567.27,-124.47C578.38,-120.28 589.94,-116.26 601,-113 618.39,-107.87 625.32,-114.11 641,-105 654.05,-97.42 665.39,-85.18 673.97,-73.94"/>
<polygon fill="black" stroke="black" points="676.62,-76.25 679.61,-66.08 670.93,-72.16 676.62,-76.25"/>
</g>
<!-- valid&#45;&gt;scratch -->
<g id="edge7" class="edge">
<title>valid&#45;&gt;scratch</title>
<path fill="none" stroke="black" d="M325.14,-124.51C319.52,-112.19 312.71,-97.26 306.58,-83.84"/>
<polygon fill="black" stroke="black" points="309.82,-82.5 302.48,-74.86 303.45,-85.41 309.82,-82.5"/>
</g>
</g>
</svg>
