<?xml version="1.0" encoding="UTF-8" standalone="no"?>
<!DOCTYPE svg PUBLIC "-//W3C//DTD SVG 1.1//EN"
 "http://www.w3.org/Graphics/SVG/1.1/DTD/svg11.dtd">
<!-- Generated by graphviz version 14.1.2 (20260124.0452)
 -->
<!-- Title: iterations Pages: 1 -->
<svg width="983pt" height="112pt"
 viewBox="0.00 0.00 983.00 112.00" xmlns="http://www.w3.org/2000/svg" xmlns:xlink="http://www.w3.org/1999/xlink">
<g id="graph0" class="graph" transform="scale(1 1) rotate(0) translate(4 108)">
<title>iterations</title>
<polygon fill="white" stroke="none" points="-4,4 -4,-108 979,-108 979,4 -4,4"/>
<g id="clust1" class="cluster">
<title>cluster_take1</title>
<path fill="#fdf5f5" stroke="#cc5555" d="M20,-8C20,-8 256.5,-8 256.5,-8 262.5,-8 268.5,-14 268.5,-20 268.5,-20 268.5,-82 268.5,-82 268.5,-88 262.5,-94 256.5,-94 256.5,-94 20,-94 20,-94 14,-94 8,-88 8,-82 8,-82 8,-20 8,-20 8,-14 14,-8 20,-8"/>
<text xml:space="preserve" text-anchor="middle" x="64.75" y="-79.55" font-family="Helvetica,sans-Serif" font-weight="bold" font-size="11.00">Take 1: Too Simple</text>
</g>
<g id="clust2" class="cluster">
<title>cluster_take2</title>
<path fill="#fdf5f5" stroke="#cc5555" d="M361,-8C361,-8 613.25,-8 613.25,-8 619.25,-8 625.25,-14 625.25,-20 625.25,-20 625.25,-82 625.25,-82 625.25,-88 619.25,-94 613.25,-94 613.25,-94 361,-94 361,-94 355,-94 349,-88 349,-82 349,-82 349,-20 349,-20 349,-14 355,-8 361,-8"/>
<text xml:space="preserve" text-anchor="middle" x="411" y="-79.55" font-family="Helvetica,sans-Serif" font-weight="bold" font-size="11.00">Take 2: Too Complex</text>
</g>
<g id="clust3" class="cluster">
<title>cluster_take3</title>
<path fill="#f0faf0" stroke="#1e8449" d="M725.25,-8C725.25,-8 955,-8 955,-8 961,-8 967,-14 967,-20 967,-20 967,-84 967,-84 967,-90 961,-96 955,-96 955,-96 725.25,-96 725.25,-96 719.25,-96 713.25,-90 713.25,-84 713.25,-84 713.25,-20 713.25,-20 713.25,-14 719.25,-8 725.25,-8"/>
<text xml:space="preserve" text-anchor="middle" x="778.62" y="-81.55" font-family="Helvetica,sans-Serif" font-weight="bold" font-size="11.00">Take 3: Right&#45;Sized &#160;✓</text>
</g>
<!-- t1a -->
<g id="node1" class="node">
<title>t1a</title>
<path fill="#ffdada" stroke="#cc5555" stroke-width="1.2" d="M108,-59C108,-59 32,-59 32,-59 26,-59 20,-53 20,-47 20,-47 20,-35 20,-35 20,-29 26,-23 32,-23 32,-23 108,-23 108,-23 114,-23 120,-29 120,-35 120,-35 120,-47 120,-47 120,-53 114,-59 108,-59"/>
<text xml:space="preserve" text-anchor="middle" x="70" y="-42.75" font-family="Helvetica,sans-Serif" font-size="10.00">LLM + Tools</text>
<text xml:space="preserve" text-anchor="middle" x="70" y="-31.5" font-family="Helvetica,sans-Serif" font-size="10.00">(basic orchestrator)</text>
</g>
<!-- t1b -->
<g id="node2" class="node">
<title>t1b</title>
<path fill="#ff6b6b" stroke="#cc5555" stroke-width="1.2" d="M244.5,-61.88C244.5,-61.88 191,-61.88 191,-61.88 185,-61.88 179,-55.88 179,-49.88 179,-49.88 179,-32.12 179,-32.12 179,-26.12 185,-20.12 191,-20.12 191,-20.12 244.5,-20.12 244.5,-20.12 250.5,-20.12 256.5,-26.12 256.5,-32.12 256.5,-32.12 256.5,-49.88 256.5,-49.88 256.5,-55.88 250.5,-61.88 244.5,-61.88"/>
<text xml:space="preserve" text-anchor="middle" x="217.75" y="-48.38" font-family="Helvetica,sans-Serif" font-size="10.00" fill="white">Hallucinations</text>
<text xml:space="preserve" text-anchor="middle" x="217.75" y="-37.12" font-family="Helvetica,sans-Serif" font-size="10.00" fill="white">Context bloat</text>
<text xml:space="preserve" text-anchor="middle" x="217.75" y="-25.88" font-family="Helvetica,sans-Serif" font-size="10.00" fill="white">Unreliable</text>
</g>
<!-- t1a&#45;&gt;t1b -->
<g id="edge1" class="edge">
<title>t1a&#45;&gt;t1b</title>
<path fill="none" stroke="black" stroke-width="1.2" d="M120.34,-41C135.33,-41 151.81,-41 166.83,-41"/>
<polygon fill="black" stroke="black" stroke-width="1.2" points="166.7,-44.5 176.7,-41 166.7,-37.5 166.7,-44.5"/>
</g>
<!-- t2a -->
<g id="node3" class="node">
<title>t2a</title>
<path fill="#ffdada" stroke="#cc5555" stroke-width="1.2" d="M441.5,-61.88C441.5,-61.88 373,-61.88 373,-61.88 367,-61.88 361,-55.88 361,-49.88 361,-49.88 361,-32.12 361,-32.12 361,-26.12 367,-20.12 373,-20.12 373,-20.12 441.5,-20.12 441.5,-20.12 447.5,-20.12 453.5,-26.12 453.5,-32.12 453.5,-32.12 453.5,-49.88 453.5,-49.88 453.5,-55.88 447.5,-61.88 441.5,-61.88"/>
<text xml:space="preserve" text-anchor="middle" x="407.25" y="-48.38" font-family="Helvetica,sans-Serif" font-size="10.00">Dynamic roles</text>
<text xml:space="preserve" text-anchor="middle" x="407.25" y="-37.12" font-family="Helvetica,sans-Serif" font-size="10.00">LLM verification</text>
<text xml:space="preserve" text-anchor="middle" x="407.25" y="-25.88" font-family="Helvetica,sans-Serif" font-size="10.00">Adaptive prompts</text>
</g>
<!-- t1b&#45;&gt;t2a -->
<g id="edge4" class="edge">
<title>t1b&#45;&gt;t2a</title>
<path fill="none" stroke="#999999" stroke-width="1.2" stroke-dasharray="5,2" d="M256.69,-41C283.14,-41 318.91,-41 348.84,-41"/>
<polygon fill="#999999" stroke="#999999" stroke-width="1.2" points="348.6,-44.5 358.6,-41 348.6,-37.5 348.6,-44.5"/>
<text xml:space="preserve" text-anchor="middle" x="308.75" y="-51.95" font-family="Helvetica,sans-Serif" font-size="9.00" fill="#999999">&quot;Add more</text>
<text xml:space="preserve" text-anchor="middle" x="308.75" y="-42.2" font-family="Helvetica,sans-Serif" font-size="9.00" fill="#999999">complexity&quot;</text>
</g>
<!-- t2b -->
<g id="node4" class="node">
<title>t2b</title>
<path fill="#ff6b6b" stroke="#cc5555" stroke-width="1.2" d="M601.25,-61.88C601.25,-61.88 524.5,-61.88 524.5,-61.88 518.5,-61.88 512.5,-55.88 512.5,-49.88 512.5,-49.88 512.5,-32.12 512.5,-32.12 512.5,-26.12 518.5,-20.12 524.5,-20.12 524.5,-20.12 601.25,-20.12 601.25,-20.12 607.25,-20.12 613.25,-26.12 613.25,-32.12 613.25,-32.12 613.25,-49.88 613.25,-49.88 613.25,-55.88 607.25,-61.88 601.25,-61.88"/>
<text xml:space="preserve" text-anchor="middle" x="562.88" y="-48.38" font-family="Helvetica,sans-Serif" font-size="10.00" fill="white">Worse performance</text>
<text xml:space="preserve" text-anchor="middle" x="562.88" y="-37.12" font-family="Helvetica,sans-Serif" font-size="10.00" fill="white">Higher cost</text>
<text xml:space="preserve" text-anchor="middle" x="562.88" y="-25.88" font-family="Helvetica,sans-Serif" font-size="10.00" fill="white">Unpredictable</text>
</g>
<!-- t2a&#45;&gt;t2b -->
<g id="edge2" class="edge">
<title>t2a&#45;&gt;t2b</title>
<path fill="none" stroke="black" stroke-width="1.2" d="M453.93,-41C468.52,-41 484.91,-41 500.43,-41"/>
<polygon fill="black" stroke="black" stroke-width="1.2" points="500.27,-44.5 510.27,-41 500.27,-37.5 500.27,-44.5"/>
</g>
<!-- t3a -->
<g id="node5" class="node">
<title>t3a</title>
<path fill="#d5f5e3" stroke="#1e8449" stroke-width="1.2" d="M802.75,-61.88C802.75,-61.88 737.25,-61.88 737.25,-61.88 731.25,-61.88 725.25,-55.88 725.25,-49.88 725.25,-49.88 725.25,-32.12 725.25,-32.12 725.25,-26.12 731.25,-20.12 737.25,-20.12 737.25,-20.12 802.75,-20.12 802.75,-20.12 808.75,-20.12 814.75,-26.12 814.75,-32.12 814.75,-32.12 814.75,-49.88 814.75,-49.88 814.75,-55.88 808.75,-61.88 802.75,-61.88"/>
<text xml:space="preserve" text-anchor="middle" x="770" y="-48.38" font-family="Helvetica,sans-Serif" font-size="10.00">Upfront planning</text>
<text xml:space="preserve" text-anchor="middle" x="770" y="-37.12" font-family="Helvetica,sans-Serif" font-size="10.00">Code verification</text>
<text xml:space="preserve" text-anchor="middle" x="770" y="-25.88" font-family="Helvetica,sans-Serif" font-size="10.00">Replan on failure</text>
</g>
<!-- t2b&#45;&gt;t3a -->
<g id="edge5" class="edge">
<title>t2b&#45;&gt;t3a</title>
<path fill="none" stroke="#999999" stroke-width="1.2" stroke-dasharray="5,2" d="M613.79,-41C643.87,-41 682.23,-41 713.29,-41"/>
<polygon fill="#999999" stroke="#999999" stroke-width="1.2" points="712.98,-44.5 722.98,-41 712.98,-37.5 712.98,-44.5"/>
<text xml:space="preserve" text-anchor="middle" x="669.25" y="-51.95" font-family="Helvetica,sans-Serif" font-size="9.00" fill="#999999">&quot;Simplify with</text>
<text xml:space="preserve" text-anchor="middle" x="669.25" y="-42.2" font-family="Helvetica,sans-Serif" font-size="9.00" fill="#999999">code checks&quot;</text>
</g>
<!-- t3b -->
<g id="node6" class="node">
<title>t3b</title>
<path fill="#50c878" stroke="#1e8449" stroke-width="1.2" d="M943,-61.88C943,-61.88 885.75,-61.88 885.75,-61.88 879.75,-61.88 873.75,-55.88 873.75,-49.88 873.75,-49.88 873.75,-32.12 873.75,-32.12 873.75,-26.12 879.75,-20.12 885.75,-20.12 885.75,-20.12 943,-20.12 943,-20.12 949,-20.12 955,-26.12 955,-32.12 955,-32.12 955,-49.88 955,-49.88 955,-55.88 949,-61.88 943,-61.88"/>
<text xml:space="preserve" text-anchor="middle" x="914.38" y="-48.38" font-family="Helvetica,sans-Serif" font-size="10.00" fill="white">Reliable output</text>
<text xml:space="preserve" text-anchor="middle" x="914.38" y="-37.12" font-family="Helvetica,sans-Serif" font-size="10.00" fill="white">Lower cost</text>
<text xml:space="preserve" text-anchor="middle" x="914.38" y="-25.88" font-family="Helvetica,sans-Serif" font-size="10.00" fill="white">Predictable</text>
</g>
<!-- t3a&#45;&gt;t3b -->
<g id="edge3" class="edge">
<title>t3a&#45;&gt;t3b</title>
<path fill="none" stroke="black" stroke-width="1.2" d="M815.27,-41C830.1,-41 846.76,-41 862.08,-41"/>
<polygon fill="black" stroke="black" stroke-width="1.2" points="861.67,-44.5 871.67,-41 861.67,-37.5 861.67,-44.5"/>
</g>
</g>
</svg>
