<?xml version="1.0" encoding="UTF-8" standalone="no"?>
<!DOCTYPE svg PUBLIC "-//W3C//DTD SVG 1.1//EN"
 "http://www.w3.org/Graphics/SVG/1.1/DTD/svg11.dtd">
<!-- Generated by graphviz version 14.1.2 (20260124.0452)
 -->
<!-- Title: multi_agent Pages: 1 -->
<svg width="959pt" height="97pt"
 viewBox="0.00 0.00 959.00 97.00" xmlns="http://www.w3.org/2000/svg" xmlns:xlink="http://www.w3.org/1999/xlink">
<g id="graph0" class="graph" transform="scale(1 1) rotate(0) translate(4 93)">
<title>multi_agent</title>
<polygon fill="white" stroke="none" points="-4,4 -4,-93 955.49,-93 955.49,4 -4,4"/>
<!-- q -->
<g id="node1" class="node">
<title>q</title>
<path fill="#4a90d9" stroke="#34699c" stroke-width="1.2" d="M96.25,-36C96.25,-36 12,-36 12,-36 6,-36 0,-30 0,-24 0,-24 0,-12 0,-12 0,-6 6,0 12,0 12,0 96.25,0 96.25,0 102.25,0 108.25,-6 108.25,-12 108.25,-12 108.25,-24 108.25,-24 108.25,-30 102.25,-36 96.25,-36"/>
<text xml:space="preserve" text-anchor="middle" x="54.12" y="-13.55" font-family="Helvetica,sans-Serif" font-size="11.00" fill="white">Research Question</text>
</g>
<!-- planner -->
<g id="node2" class="node">
<title>planner</title>
<path fill="#f5a623" stroke="#c4841c" stroke-width="1.2" d="M255.75,-36C255.75,-36 157.25,-36 157.25,-36 151.25,-36 145.25,-30 145.25,-24 145.25,-24 145.25,-12 145.25,-12 145.25,-6 151.25,0 157.25,0 157.25,0 255.75,0 255.75,0 261.75,0 267.75,-6 267.75,-12 267.75,-12 267.75,-24 267.75,-24 267.75,-30 261.75,-36 255.75,-36"/>
<text xml:space="preserve" text-anchor="middle" x="206.5" y="-19.55" font-family="Helvetica,sans-Serif" font-size="11.00">Planner Agent</text>
<text xml:space="preserve" text-anchor="middle" x="206.5" y="-7.55" font-family="Helvetica,sans-Serif" font-size="11.00">Creates research plan</text>
</g>
<!-- q&#45;&gt;planner -->
<g id="edge1" class="edge">
<title>q&#45;&gt;planner</title>
<path fill="none" stroke="black" d="M108.57,-18C116.63,-18 125.06,-18 133.45,-18"/>
<polygon fill="black" stroke="black" points="133.29,-21.5 143.29,-18 133.29,-14.5 133.29,-21.5"/>
</g>
<!-- action -->
<g id="node3" class="node">
<title>action</title>
<path fill="#7b68ee" stroke="#5a4bc7" stroke-width="1.2" d="M381.5,-89C381.5,-89 316.75,-89 316.75,-89 310.75,-89 304.75,-83 304.75,-77 304.75,-77 304.75,-57 304.75,-57 304.75,-51 310.75,-45 316.75,-45 316.75,-45 381.5,-45 381.5,-45 387.5,-45 393.5,-51 393.5,-57 393.5,-57 393.5,-77 393.5,-77 393.5,-83 387.5,-89 381.5,-89"/>
<text xml:space="preserve" text-anchor="middle" x="349.12" y="-74.55" font-family="Helvetica,sans-Serif" font-size="11.00" fill="white">Action Agent</text>
<text xml:space="preserve" text-anchor="middle" x="349.12" y="-62.55" font-family="Helvetica,sans-Serif" font-size="11.00" fill="white">Executes tools,</text>
<text xml:space="preserve" text-anchor="middle" x="349.12" y="-50.55" font-family="Helvetica,sans-Serif" font-size="11.00" fill="white">gathers data</text>
</g>
<!-- planner&#45;&gt;action -->
<g id="edge2" class="edge">
<title>planner&#45;&gt;action</title>
<path fill="none" stroke="black" d="M260.66,-36.52C271.51,-40.31 282.94,-44.29 293.83,-48.08"/>
<polygon fill="black" stroke="black" points="292.48,-51.32 303.07,-51.3 294.78,-44.71 292.48,-51.32"/>
</g>
<!-- validator -->
<g id="node4" class="node">
<title>validator</title>
<path fill="#50c878" stroke="#3a9a5c" stroke-width="1.2" d="M530.25,-89C530.25,-89 453.5,-89 453.5,-89 447.5,-89 441.5,-83 441.5,-77 441.5,-77 441.5,-57 441.5,-57 441.5,-51 447.5,-45 453.5,-45 453.5,-45 530.25,-45 530.25,-45 536.25,-45 542.25,-51 542.25,-57 542.25,-57 542.25,-77 542.25,-77 542.25,-83 536.25,-89 530.25,-89"/>
<text xml:space="preserve" text-anchor="middle" x="491.88" y="-74.55" font-family="Helvetica,sans-Serif" font-size="11.00">Validation Agent</text>
<text xml:space="preserve" text-anchor="middle" x="491.88" y="-62.55" font-family="Helvetica,sans-Serif" font-size="11.00">Checks accuracy,</text>
<text xml:space="preserve" text-anchor="middle" x="491.88" y="-50.55" font-family="Helvetica,sans-Serif" font-size="11.00">identifies gaps</text>
</g>
<!-- action&#45;&gt;validator -->
<g id="edge3" class="edge">
<title>action&#45;&gt;validator</title>
<path fill="none" stroke="black" d="M393.89,-67C405.26,-67 417.72,-67 429.81,-67"/>
<polygon fill="black" stroke="black" points="429.73,-70.5 439.73,-67 429.73,-63.5 429.73,-70.5"/>
</g>
<!-- decision -->
<g id="node5" class="node">
<title>decision</title>
<polygon fill="#f1948a" stroke="#c0392b" stroke-width="1.2" points="618.37,-36 579.25,-18 618.37,0 657.49,-18 618.37,-36"/>
<text xml:space="preserve" text-anchor="middle" x="618.37" y="-13.55" font-family="Helvetica,sans-Serif" font-size="11.00">Pass?</text>
</g>
<!-- validator&#45;&gt;decision -->
<g id="edge4" class="edge">
<title>validator&#45;&gt;decision</title>
<path fill="none" stroke="black" d="M542.79,-47.35C557.38,-41.61 572.91,-35.5 586,-30.35"/>
<polygon fill="black" stroke="black" points="586.91,-33.75 594.93,-26.83 584.35,-27.24 586.91,-33.75"/>
</g>
<!-- decision&#45;&gt;planner -->
<g id="edge5" class="edge">
<title>decision&#45;&gt;planner</title>
<path fill="none" stroke="#c0392b" stroke-dasharray="5,2" d="M577.97,-18C509.15,-18 366.14,-18 279.32,-18"/>
<polygon fill="#c0392b" stroke="#c0392b" points="279.49,-14.5 269.49,-18 279.49,-21.5 279.49,-14.5"/>
<text xml:space="preserve" text-anchor="middle" x="417.5" y="-19.2" font-family="Helvetica,sans-Serif" font-size="9.00" fill="#c0392b">No</text>
</g>
<!-- answer -->
<g id="node6" class="node">
<title>answer</title>
<path fill="#4ecdc4" stroke="#3aaba3" stroke-width="1.2" d="M800.99,-36C800.99,-36 719.74,-36 719.74,-36 713.74,-36 707.74,-30 707.74,-24 707.74,-24 707.74,-12 707.74,-12 707.74,-6 713.74,0 719.74,0 719.74,0 800.99,0 800.99,0 806.99,0 812.99,-6 812.99,-12 812.99,-12 812.99,-24 812.99,-24 812.99,-30 806.99,-36 800.99,-36"/>
<text xml:space="preserve" text-anchor="middle" x="760.36" y="-19.55" font-family="Helvetica,sans-Serif" font-size="11.00">Answer Agent</text>
<text xml:space="preserve" text-anchor="middle" x="760.36" y="-7.55" font-family="Helvetica,sans-Serif" font-size="11.00">Synthesizes report</text>
</g>
<!-- decision&#45;&gt;answer -->
<g id="edge6" class="edge">
<title>decision&#45;&gt;answer</title>
<path fill="none" stroke="black" d="M658.74,-18C670.25,-18 683.15,-18 695.76,-18"/>
<polygon fill="black" stroke="black" points="695.71,-21.5 705.71,-18 695.71,-14.5 695.71,-21.5"/>
<text xml:space="preserve" text-anchor="middle" x="682.61" y="-19.2" font-family="Helvetica,sans-Serif" font-size="9.00">Yes</text>
</g>
<!-- report -->
<g id="node7" class="node">
<title>report</title>
<path fill="#4a90d9" stroke="#34699c" stroke-width="1.2" d="M939.49,-36C939.49,-36 861.99,-36 861.99,-36 855.99,-36 849.99,-30 849.99,-24 849.99,-24 849.99,-12 849.99,-12 849.99,-6 855.99,0 861.99,0 861.99,0 939.49,0 939.49,0 945.49,0 951.49,-6 951.49,-12 951.49,-12 951.49,-24 951.49,-24 951.49,-30 945.49,-36 939.49,-36"/>
<text xml:space="preserve" text-anchor="middle" x="900.74" y="-13.55" font-family="Helvetica,sans-Serif" font-size="11.00" fill="white">Investment Memo</text>
</g>
<!-- answer&#45;&gt;report -->
<g id="edge7" class="edge">
<title>answer&#45;&gt;report</title>
<path fill="none" stroke="black" d="M813.28,-18C821.51,-18 830.08,-18 838.49,-18"/>
<polygon fill="black" stroke="black" points="838.31,-21.5 848.31,-18 838.31,-14.5 838.31,-21.5"/>
</g>
</g>
</svg>
